<svg width="21" height="25" viewBox="0 0 21 25" fill="none" xmlns="http://www.w3.org/2000/svg">
<path d="M15.9706 17.4705V17.6776L16.117 17.824L18.3235 20.0305V20.4999H0.5V20.0305L2.70649 17.824L2.85294 17.6776V17.4705V11.5881C2.85294 8.13898 4.66278 5.37376 7.76233 4.63937L8.14706 4.54822V4.15284V3.35284C8.14706 2.65251 8.71144 2.08813 9.41177 2.08813C10.1121 2.08813 10.6765 2.65251 10.6765 3.35284V4.15284V4.5479L11.0608 4.63928C14.1493 5.3736 15.9706 8.15119 15.9706 11.5881V17.4705ZM11.1955 22.6764C10.9756 23.4541 10.2567 24.0293 9.41177 24.0293C8.55819 24.0293 7.84473 23.4549 7.6271 22.6764H11.1955Z" fill="white" stroke="white"/>
<circle cx="15.2941" cy="5.70588" r="5.20588" fill="#F7685B" stroke="white"/>
</svg>
