<svg width="17" height="16" viewBox="0 0 17 16" fill="none" xmlns="http://www.w3.org/2000/svg">
<path d="M14.8295 1.86375C14.9652 1.86375 15.0952 1.9284 15.1911 2.04348C15.287 2.15856 15.3409 2.31464 15.3409 2.47738V13.5228C15.3409 13.6856 15.287 13.8417 15.1911 13.9567C15.0952 14.0718 14.9652 14.1365 14.8295 14.1365H1.53409C1.39847 14.1365 1.2684 14.0718 1.1725 13.9567C1.0766 13.8417 1.02273 13.6856 1.02273 13.5228V2.47738C1.02273 2.31464 1.0766 2.15856 1.1725 2.04348C1.2684 1.9284 1.39847 1.86375 1.53409 1.86375H14.8295ZM1.53409 0.636475C1.12722 0.636475 0.737023 0.830427 0.449325 1.17566C0.161627 1.5209 0 1.98914 0 2.47738L0 13.5228C0 14.0111 0.161627 14.4793 0.449325 14.8246C0.737023 15.1698 1.12722 15.3637 1.53409 15.3637H14.8295C15.2364 15.3637 15.6266 15.1698 15.9143 14.8246C16.202 14.4793 16.3636 14.0111 16.3636 13.5228V2.47738C16.3636 1.98914 16.202 1.5209 15.9143 1.17566C15.6266 0.830427 15.2364 0.636475 14.8295 0.636475H1.53409Z" fill="white"/>
<path d="M5.11339 7.99993C5.11339 7.83719 5.16726 7.68111 5.26316 7.56603C5.35906 7.45095 5.48913 7.3863 5.62475 7.3863H12.7838C12.9195 7.3863 13.0495 7.45095 13.1454 7.56603C13.2413 7.68111 13.2952 7.83719 13.2952 7.99993C13.2952 8.16268 13.2413 8.31876 13.1454 8.43384C13.0495 8.54892 12.9195 8.61357 12.7838 8.61357H5.62475C5.48913 8.61357 5.35906 8.54892 5.26316 8.43384C5.16726 8.31876 5.11339 8.16268 5.11339 7.99993ZM5.11339 4.93175C5.11339 4.76901 5.16726 4.61292 5.26316 4.49785C5.35906 4.38277 5.48913 4.31812 5.62475 4.31812H12.7838C12.9195 4.31812 13.0495 4.38277 13.1454 4.49785C13.2413 4.61292 13.2952 4.76901 13.2952 4.93175C13.2952 5.0945 13.2413 5.25058 13.1454 5.36566C13.0495 5.48074 12.9195 5.54539 12.7838 5.54539H5.62475C5.48913 5.54539 5.35906 5.48074 5.26316 5.36566C5.16726 5.25058 5.11339 5.0945 5.11339 4.93175ZM5.11339 11.0681C5.11339 10.9054 5.16726 10.7493 5.26316 10.6342C5.35906 10.5191 5.48913 10.4545 5.62475 10.4545H12.7838C12.9195 10.4545 13.0495 10.5191 13.1454 10.6342C13.2413 10.7493 13.2952 10.9054 13.2952 11.0681C13.2952 11.2309 13.2413 11.3869 13.1454 11.502C13.0495 11.6171 12.9195 11.6818 12.7838 11.6818H5.62475C5.48913 11.6818 5.35906 11.6171 5.26316 11.502C5.16726 11.3869 5.11339 11.2309 5.11339 11.0681ZM4.09066 4.93175C4.09066 5.0945 4.03678 5.25058 3.94088 5.36566C3.84499 5.48074 3.71492 5.54539 3.5793 5.54539C3.44367 5.54539 3.31361 5.48074 3.21771 5.36566C3.12181 5.25058 3.06793 5.0945 3.06793 4.93175C3.06793 4.76901 3.12181 4.61292 3.21771 4.49785C3.31361 4.38277 3.44367 4.31812 3.5793 4.31812C3.71492 4.31812 3.84499 4.38277 3.94088 4.49785C4.03678 4.61292 4.09066 4.76901 4.09066 4.93175ZM4.09066 7.99993C4.09066 8.16268 4.03678 8.31876 3.94088 8.43384C3.84499 8.54892 3.71492 8.61357 3.5793 8.61357C3.44367 8.61357 3.31361 8.54892 3.21771 8.43384C3.12181 8.31876 3.06793 8.16268 3.06793 7.99993C3.06793 7.83719 3.12181 7.68111 3.21771 7.56603C3.31361 7.45095 3.44367 7.3863 3.5793 7.3863C3.71492 7.3863 3.84499 7.45095 3.94088 7.56603C4.03678 7.68111 4.09066 7.83719 4.09066 7.99993ZM4.09066 11.0681C4.09066 11.2309 4.03678 11.3869 3.94088 11.502C3.84499 11.6171 3.71492 11.6818 3.5793 11.6818C3.44367 11.6818 3.31361 11.6171 3.21771 11.502C3.12181 11.3869 3.06793 11.2309 3.06793 11.0681C3.06793 10.9054 3.12181 10.7493 3.21771 10.6342C3.31361 10.5191 3.44367 10.4545 3.5793 10.4545C3.71492 10.4545 3.84499 10.5191 3.94088 10.6342C4.03678 10.7493 4.09066 10.9054 4.09066 11.0681Z" fill="white"/>
</svg>
